# xmcd
#
# Track frame offsets: 
#        151
#        11192
#        24089
#        34874
#        45385
#        57361
#        71526
#        87018
#        103921
#        119815
#        131234
#        140863
#        154782
#
# Disc length: 2600 seconds
#
# Revision: 0
# Processed by: cddbd v1.5.2PL0 Copyright (c) Steve Scherf et al.
# Submitted via: ExactAudioCopy v0.95b4
#
DISCID=b80a260d
DTITLE=Fats Domino - Sentimental Journey [CD 1)
DYEAR=1986
DGENRE=Rock and Roll
TTITLE0=I'm Gonna Be A Wheel Someday
TTITLE1=I'm Walking
TTITLE2=Ain't That A Shame
TTITLE3=The Fat Man
TTITLE4=I Wanna Walk You Home
TTITLE5=Walking To New Orleans
TTITLE6=Your Cheating Heart
TTITLE7=Please Don't Leave
TTITLE8=Whiskey Heaven
TTITLE9=Going To The River
TTITLE10=What A Price
TTITLE11=Poor Me
TTITLE12=Jambalaya
EXTD=
EXTT0=
EXTT1=
EXTT2=
EXTT3=
EXTT4=
EXTT5=
EXTT6=
EXTT7=
EXTT8=
EXTT9=
EXTT10=
EXTT11=
EXTT12=
PLAYORDER=
